<svg xmlns="http://www.w3.org/2000/svg" width="600" height="500" viewBox="0 0 600 500">
  <!-- REEMPLAZAR: foto real de la clínica o de una paciente sonriendo (guardar como hero.jpg y actualizar Hero.tsx) -->
  <defs>
    <linearGradient id="g" x1="0" y1="0" x2="1" y2="1">
      <stop offset="0" stop-color="#5eead4"/>
      <stop offset="1" stop-color="#0d9488"/>
    </linearGradient>
  </defs>
  <rect width="600" height="500" rx="24" fill="url(#g)"/>
  <path d="M255 160c-28 0-45 22-45 50 0 45 22 67 28 100 3 20 6 39 20 39s14-24 19-46c4-18 13-28 23-28s19 10 23 28c5 22 5 46 19 46s17-19 20-39c6-33 28-55 28-100 0-28-17-50-45-50-20 0-34 11-45 11s-25-11-45-11z" fill="#ffffff" opacity="0.9"/>
  <text x="300" y="420" text-anchor="middle" font-family="Arial, sans-serif" font-size="22" font-weight="bold" fill="#ffffff">FOTO PLACEHOLDER</text>
  <text x="300" y="450" text-anchor="middle" font-family="Arial, sans-serif" font-size="16" fill="#ccfbf1">Reemplazar con foto real de la clínica</text>
</svg>
